<svg width="32" height="32" viewBox="0 0 32 32" fill="none" xmlns="http://www.w3.org/2000/svg">
<circle cx="16" cy="16" r="16" fill="#2F80ED"/>
<path d="M32 16C32 24.8366 24.8365 32 16 32C7.1634 32 20.5 25.8366 20.5 17C20.5 8.16344 7.1634 0 16 0C24.8365 0 32 7.16344 32 16Z" fill="#56CCF2"/>
<path d="M2.61 14.22C3.35667 13.9667 4.13 13.84 4.93 13.84C5.73 13.84 6.39333 14.01 6.92 14.35C7.44667 14.69 7.71 15.21 7.71 15.91C7.71 16.61 7.46333 17.2 6.97 17.68C6.47667 18.1533 5.88333 18.39 5.19 18.39C4.68333 18.39 4.43 18.1967 4.43 17.81C4.43 17.69 4.45333 17.5633 4.5 17.43C4.68 17.4767 4.84333 17.5 4.99 17.5C5.45 17.5 5.79667 17.3733 6.03 17.12C6.27 16.8667 6.39 16.5167 6.39 16.07C6.39 15.6167 6.26333 15.28 6.01 15.06C5.75667 14.84 5.40333 14.73 4.95 14.73C4.71667 14.73 4.43333 14.77 4.1 14.85C4.04667 15.67 4.02 16.3967 4.02 17.03C4.02 18.8033 4.09 20.0867 4.23 20.88C4.01667 20.96 3.79 21 3.55 21C3.31 21 3.1 20.9233 2.92 20.77C2.74667 20.6167 2.66 20.4133 2.66 20.16C2.66 19.9067 2.69333 19.4667 2.76 18.84C2.82667 18.2067 2.86 17.7 2.86 17.32C2.86 16.16 2.77667 15.1267 2.61 14.22ZM10.8951 13.62C11.1084 13.54 11.3284 13.5 11.5551 13.5C11.7817 13.5 11.9684 13.5767 12.1151 13.73C12.2617 13.8767 12.3351 14.0633 12.3351 14.29C12.3351 14.51 12.3017 15.0367 12.2351 15.87C12.1684 16.6967 12.1351 17.5133 12.1351 18.32C12.1351 19.12 12.2151 19.9733 12.3751 20.88C12.1351 20.96 11.8851 21 11.6251 21C11.1851 21 10.9651 20.69 10.9651 20.07C10.9651 19.8633 11.0084 19.4933 11.0951 18.96C10.8151 19.5533 10.5651 19.9933 10.3451 20.28C10.1317 20.5667 9.92174 20.77 9.71508 20.89C9.51508 21.0033 9.30174 21.06 9.07508 21.06C8.56841 21.06 8.17841 20.8733 7.90508 20.5C7.63841 20.1267 7.50508 19.6667 7.50508 19.12C7.50508 18.5733 7.60174 18.06 7.79508 17.58C7.99508 17.0933 8.29174 16.69 8.68508 16.37C9.08508 16.0433 9.50841 15.88 9.95508 15.88C10.4017 15.88 10.7884 15.94 11.1151 16.06C11.1017 15.2 11.0284 14.3867 10.8951 13.62ZM11.1151 16.91C10.7884 16.79 10.4351 16.73 10.0551 16.73C9.67508 16.73 9.34841 16.84 9.07508 17.06C8.84841 17.6 8.73508 18.2033 8.73508 18.87C8.73508 19.1767 8.77841 19.47 8.86508 19.75C8.95174 20.03 9.09508 20.17 9.29508 20.17C9.60174 20.17 9.94841 19.8267 10.3351 19.14C10.7284 18.4533 10.9884 17.71 11.1151 16.91ZM13.8213 19.37C13.8213 19.25 13.7913 18.47 13.7313 17.03C13.4046 17.05 13.1446 17.1067 12.9513 17.2C12.8713 17.0533 12.8313 16.9 12.8313 16.74C12.8313 16.58 12.8879 16.45 13.0013 16.35C13.1146 16.2433 13.2479 16.19 13.4013 16.19C13.5546 16.19 13.6646 16.1933 13.7313 16.2C13.7646 15.4467 14.0213 14.81 14.5013 14.29C14.9813 13.7633 15.5846 13.5 16.3113 13.5C16.7179 13.5 17.0613 13.5867 17.3413 13.76C17.6213 13.9333 17.7613 14.19 17.7613 14.53C17.7613 14.77 17.6713 14.9733 17.4913 15.14C17.3113 15.3067 17.0979 15.39 16.8513 15.39C16.7979 15.39 16.7313 15.3833 16.6513 15.37C16.6713 15.2833 16.6813 15.2067 16.6813 15.14C16.6813 14.9067 16.6313 14.72 16.5313 14.58C16.4313 14.4333 16.2546 14.36 16.0013 14.36C15.7479 14.36 15.5146 14.4333 15.3013 14.58C15.1679 14.76 15.0613 15.01 14.9813 15.33C14.9013 15.65 14.8613 15.9633 14.8613 16.27H15.0913C15.5313 16.27 16.0546 16.2 16.6613 16.06C16.7413 16.1933 16.7813 16.3533 16.7813 16.54C16.7813 16.72 16.7046 16.87 16.5513 16.99C16.3979 17.11 16.2046 17.17 15.9713 17.17C15.9646 17.17 15.5879 17.1233 14.8413 17.03L14.9413 22.23C14.9413 22.6633 14.6846 22.88 14.1713 22.88C13.9979 22.88 13.7713 22.84 13.4913 22.76C13.7113 21.8867 13.8213 20.7567 13.8213 19.37Z" fill="white"/>
<path d="M25.41 18.18C25.39 18.2733 25.38 18.35 25.38 18.41C25.38 18.6833 25.46 18.8933 25.62 19.04C25.7867 19.1867 26.0067 19.26 26.28 19.26C26.56 19.26 26.79 19.21 26.97 19.11C27.1567 19.0033 27.25 18.8467 27.25 18.64C27.25 18.4333 27.15 18.27 26.95 18.15C26.7567 18.0233 26.52 17.9233 26.24 17.85C25.9667 17.7767 25.69 17.6967 25.41 17.61C25.13 17.5167 24.89 17.3733 24.69 17.18C24.4967 16.9867 24.4 16.7433 24.4 16.45C24.4 15.99 24.6433 15.6033 25.13 15.29C25.6167 14.9767 26.1267 14.82 26.66 14.82C27.2467 14.82 27.6933 14.94 28 15.18C28.18 15.32 28.27 15.5067 28.27 15.74C28.27 15.9667 28.18 16.1533 28 16.3C27.8267 16.44 27.6133 16.51 27.36 16.51C27.3067 16.51 27.24 16.5033 27.16 16.49C27.18 16.4033 27.19 16.3267 27.19 16.26C27.19 16.0667 27.1167 15.92 26.97 15.82C26.8233 15.72 26.6233 15.67 26.37 15.67C26.1233 15.67 25.8967 15.72 25.69 15.82C25.61 15.9267 25.57 16.0633 25.57 16.23C25.57 16.3967 25.6667 16.5333 25.86 16.64C26.0533 16.74 26.2867 16.83 26.56 16.91C26.84 16.9833 27.12 17.07 27.4 17.17C27.68 17.2633 27.9167 17.4133 28.11 17.62C28.3033 17.82 28.4 18.0733 28.4 18.38C28.4 18.88 28.15 19.2967 27.65 19.63C27.1567 19.9567 26.6467 20.12 26.12 20.12C25.5933 20.12 25.1567 20.0267 24.81 19.84C24.47 19.6467 24.3 19.3567 24.3 18.97C24.3 18.73 24.3867 18.5367 24.56 18.39C24.74 18.2367 24.9567 18.16 25.21 18.16C25.2633 18.16 25.33 18.1667 25.41 18.18Z" fill="white"/>
</svg>
